<?xml version="1.0" encoding="utf-8"?>
<!-- Generator: Adobe Illustrator 24.0.1, SVG Export Plug-In . SVG Version: 6.00 Build 0)  -->
<svg version="1.1" id="Layer_1" xmlns="http://www.w3.org/2000/svg" xmlns:xlink="http://www.w3.org/1999/xlink" x="0px" y="0px"
	 viewBox="0 0 150 54.32" style="enable-background:new 0 0 150 54.32;" xml:space="preserve">
<style type="text/css">
	.st0{fill:#03CCFF;}
	.st1{fill:#4F5BC6;}
	.st2{fill:#6667FF;}
	.st3{fill:url(#SVGID_1_);}
	.st4{fill:url(#SVGID_2_);}
	.st5{fill:url(#SVGID_3_);}
	.st6{fill:url(#SVGID_4_);}
	.st7{fill:url(#SVGID_5_);}
	.st8{fill:url(#SVGID_6_);}
</style>
 <g>
    <g></g>
    <g>
      <g>
        <path d="M61.82,20.18c-1.99-1.56-4.29-2.35-6.83-2.35c-2.05,0-3.97,0.53-5.72,1.58c-1.7,1.03-3.05,2.42-4.01,4.15
				c-0.92,1.66-1.39,3.47-1.39,5.39v10.5h3.87v-10.5c0-2.02,0.69-3.7,2.12-5.13c1.43-1.43,3.1-2.12,5.13-2.12
				c1.67,0,3.13,0.5,4.45,1.53c1.3,1.01,2.13,2.27,2.55,3.84l0.34,1.29l3.73-1.02l-0.34-1.27C65.09,23.68,63.78,21.7,61.82,20.18z"></path>
        <linearGradient id="SVGID_1_" gradientUnits="userSpaceOnUse" x1="70.2966" y1="1.1238" x2="70.2966" y2="20.3262">
          <stop offset="0" style="stop-color:#6667FF"></stop>
          <stop offset="1" style="stop-color:#05CDFF"></stop>
        </linearGradient>
        <path class="st3" d="M70.29,15.98c1.52,0,2.88-0.56,3.95-1.63c1.07-1.07,1.64-2.44,1.64-3.95s-0.57-2.88-1.64-3.95
				c-2.13-2.13-5.74-2.15-7.9,0c-1.07,1.07-1.63,2.43-1.63,3.95s0.56,2.88,1.64,3.96C67.42,15.42,68.79,15.98,70.29,15.98z"></path>
        <rect x="68.36" y="18.45" width="3.87" height="21.01"></rect>
        <path d="M104.57,17.84c-3.05,0-5.69,1.09-7.85,3.25c-0.03,0.03-0.07,0.07-0.1,0.1c-0.03-0.03-0.07-0.07-0.1-0.1
				c-2.17-2.15-4.81-3.25-7.86-3.25c-3.05,0-5.7,1.1-7.86,3.26c-2.16,2.16-3.26,4.81-3.26,7.86v10.5h3.87v-10.5
				c0-2.02,0.69-3.7,2.12-5.13c1.43-1.43,3.1-2.12,5.13-2.12c2.02,0,3.69,0.69,5.12,2.12c0.72,0.72,1.26,1.52,1.61,2.37
				c0.34,0.84,0.51,1.77,0.51,2.76v10.5h3.87v-10.5c0-1.61-0.3-3.11-0.91-4.48c0.18-0.22,0.37-0.44,0.58-0.65
				c1.43-1.43,3.1-2.12,5.13-2.12c2.02,0,3.7,0.69,5.12,2.12c1.43,1.43,2.12,3.1,2.12,5.13v10.5h3.87v-10.5
				c0-3.05-1.1-5.7-3.26-7.86C110.27,18.93,107.62,17.84,104.57,17.84z"></path>
        <path d="M139.36,21.09c-2.16-2.16-4.81-3.26-7.86-3.26s-5.7,1.1-7.86,3.26c-2.16,2.16-3.26,4.81-3.26,7.86s1.1,5.7,3.26,7.86
				c2.16,2.16,4.8,3.26,7.86,3.26c2.77,0,5.2-0.9,7.25-2.69v2.07h3.87v-10.5C142.62,25.9,141.52,23.25,139.36,21.09z M131.5,36.2
				c-2.02,0-3.7-0.69-5.12-2.12c-1.43-1.43-2.12-3.1-2.12-5.12s0.69-3.7,2.12-5.13c1.43-1.43,3.1-2.12,5.12-2.12s3.7,0.69,5.13,2.12
				c1.43,1.43,2.12,3.1,2.12,5.13s-0.69,3.7-2.12,5.12C135.2,35.51,133.52,36.2,131.5,36.2z"></path>
      </g>
      <g>
        <linearGradient id="SVGID_2_" gradientUnits="userSpaceOnUse" x1="32.6608" y1="6.921" x2="29.1546" y2="35.9724">
          <stop offset="0" style="stop-color:#6667FF"></stop>
          <stop offset="1" style="stop-color:#05CDFF"></stop>
        </linearGradient>
        <path class="st4" d="M25.01,32.1L25.01,32.1l0-27.29l0.37,0c17.52,0,18.53,26.37,1.03,27.26C25.95,32.08,25.48,32.1,25.01,32.1z"></path>
        <linearGradient id="SVGID_3_" gradientUnits="userSpaceOnUse" x1="17.1615" y1="2.0772" x2="13.2558" y2="34.4383">
          <stop offset="0" style="stop-color:#6667FF"></stop>
          <stop offset="1" style="stop-color:#05CDFF"></stop>
        </linearGradient>
        <rect x="7.38" y="4.8" class="st5" width="14.63" height="35.39"></rect>
      </g>
    </g>
    <g></g>
  </g></svg>